Coordinates
version=1
nRows=13
nColumns=22
inDegrees=yes

Units are S.I. units (second, meters, Newtons, ...)
If the header above contains a line with 'inDegrees', this indicates whether rotational values are in degrees (yes) or radians (no).

endheader
time	pelvis_tilt	pelvis_list	pelvis_rotation	pelvis_tx	pelvis_ty	pelvis_tz	hip_flexion_r	hip_adduction_r	hip_rotation_r	knee_angle_r	ankle_angle_r	subtalar_angle_r	hip_flexion_l	hip_adduction_l	hip_rotation_l	knee_angle_l	ankle_angle_l	subtalar_angle_l	lumbar_extension	lumbar_bending	lumbar_rotation
      4.16000000	    -11.23210997	      1.40091007	     -5.15741680	      1.40854501	      0.97359295	      0.19811672	     31.68715202	     -4.05734448	     -4.36885567	    -48.19892773	     19.29648426	      1.25560586	     28.06848728	      4.54490832	     -5.11784330	    -20.76633072	     10.79645842	     -1.59675692	      2.72390248	     -0.47564107	      1.84192960
      4.17000000	    -11.24484525	      1.31868323	     -5.06738715	      1.41132219	      0.97396103	      0.19773586	     31.77295595	     -4.05859111	     -4.61940800	    -46.87898800	     19.51618928	      1.26455743	     27.81565901	      4.54304945	     -5.07595421	    -20.61229125	     10.91798036	     -1.78954630	      2.64003419	     -0.39663153	      1.69500328
      4.18000000	    -11.29164110	      1.25963560	     -5.02474100	      1.41402298	      0.97425403	      0.19754139	     31.89098836	     -4.01430931	     -4.75790967	    -45.59946710	     19.74616687	      1.26622974	     27.61036576	      4.52975279	     -5.06761760	    -20.47064883	     11.02491101	     -1.91152452	      2.61267455	     -0.35214353	      1.62631198
      4.19000000	    -11.36731259	      1.22197548	     -5.00535047	      1.41663690	      0.97447833	      0.19747595	     32.03477290	     -3.93815712	     -4.79204958	    -44.37025548	     19.97151009	      1.28126317	     27.44660536	      4.51892688	     -5.05259309	    -20.33670270	     11.11672812	     -1.96534801	      2.62928732	     -0.33743406	      1.60926633
      4.20000000	    -11.39577676	      1.12964645	     -4.97747184	      1.41923570	      0.97477922	      0.19747295	     32.08310078	     -3.80013891	     -4.83271131	    -43.15507728	     20.14371852	      1.35946414	     27.25584501	      4.45013471	     -5.04372831	    -20.25682199	     11.28163575	     -2.05484533	      2.59464307	     -0.26245277	      1.56912334
      4.21000000	    -11.44224793	      1.06476974	     -4.97500450	      1.42175140	      0.97502586	      0.19759364	     32.14908210	     -3.63989401	     -4.75461745	    -42.00356475	     20.33475605	      1.48846873	     27.09208907	      4.39174387	     -5.02773093	    -20.17851138	     11.42574011	     -2.10745990	      2.58997832	     -0.22421503	      1.57697388
      4.22000000	    -11.48865814	      1.00466794	     -4.98116281	      1.42419804	      0.97525458	      0.19779443	     32.20247957	     -3.45847076	     -4.60682173	    -40.90658104	     20.51759812	      1.70409994	     26.94431889	      4.32893038	     -5.00906931	    -20.12400643	     11.57914970	     -2.13843410	      2.59254548	     -0.19537836	      1.60224321
      4.23000000	    -11.55117734	      0.94453474	     -4.99861787	      1.42658127	      0.97542904	      0.19808932	     32.26146623	     -3.25639492	     -4.41304963	    -39.87120928	     20.71608924	      1.90468600	     26.83282415	      4.24866303	     -5.01597641	    -20.09911191	     11.73998336	     -2.15144351	      2.62037420	     -0.17041221	      1.65316639
      4.24000000	    -11.60466431	      0.89174339	     -5.02253690	      1.42889484	      0.97559871	      0.19844533	     32.30155715	     -3.04906077	     -4.16686107	    -38.89993554	     20.89950411	      2.18861033	     26.72398326	      4.17155918	     -5.00382610	    -20.08892660	     11.90381319	     -2.15675463	      2.64163540	     -0.15586997	      1.70991227
      4.25000000	    -11.65298265	      0.86712146	     -5.04459378	      1.43115303	      0.97575395	      0.19880554	     32.33522447	     -2.87533479	     -3.89535440	    -38.00518229	     21.08897221	      2.59560316	     26.61380111	      4.12789731	     -4.95984818	    -20.07528073	     12.04400228	     -2.15100150	      2.66383093	     -0.16941325	      1.77052779
      4.26000000	    -11.71733099	      0.83402117	     -5.07111124	      1.43334875	      0.97585477	      0.19923365	     32.36966240	     -2.68816177	     -3.62237883	    -37.16105485	     21.25576607	      2.76789573	     26.54299026	      4.06016356	     -4.95655559	    -20.09922216	     12.20646755	     -2.15575940	      2.70916149	     -0.17298511	      1.83958523
      4.27000000	    -11.76817888	      0.81002831	     -5.09562274	      1.43549519	      0.97596019	      0.19968500	     32.38049658	     -2.51895348	     -3.35139164	    -36.37884919	     21.40575749	      2.99485922	     26.46028396	      4.00511307	     -4.93510993	    -20.11973304	     12.35956186	     -2.15550033	      2.74177631	     -0.18727297	      1.91036798
      4.28000000	    -11.82555776	      0.80198488	     -5.10480708	      1.43757545	      0.97602843	      0.20012242	     32.38928825	     -2.38153384	     -3.10121749	    -35.65310327	     21.55462393	      3.12917409	     26.38878944	      3.97729689	     -4.86722881	    -20.13711336	     12.48374266	     -2.15532315	      2.78485103	     -0.21707009	      1.99168198
